<?xml version="1.0" encoding="UTF-8" standalone="no"?>
<!DOCTYPE svg PUBLIC "-//W3C//DTD SVG 1.1//EN"
 "http://www.w3.org/Graphics/SVG/1.1/DTD/svg11.dtd">
<!-- Generated by graphviz version 2.43.0 (0)
 -->
<!-- Title: LandBuster Pages: 1 -->
<svg width="1755pt" height="1862pt"
 viewBox="0.00 0.00 1755.00 1862.00" xmlns="http://www.w3.org/2000/svg" xmlns:xlink="http://www.w3.org/1999/xlink">
<g id="graph0" class="graph" transform="scale(1 1) rotate(0) translate(4 1858)">
<title>LandBuster</title>
<polygon fill="white" stroke="transparent" points="-4,4 -4,-1858 1751,-1858 1751,4 -4,4"/>
<g id="clust1" class="cluster">
<title>cluster_power</title>
<polygon fill="white" stroke="#888888" stroke-dasharray="5,2" points="8,-992 8,-1178 844,-1178 844,-992 8,-992"/>
<text text-anchor="middle" x="66" y="-1163.6" font-family="Helvetica,sans-Serif" font-size="13.00" fill="#555555">POWER SUPPLY</text>
</g>
<g id="clust2" class="cluster">
<title>cluster_mcu</title>
<polygon fill="white" stroke="#e94560" stroke-dasharray="5,2" points="565,-725 565,-984 876,-984 876,-725 565,-725"/>
<text text-anchor="middle" x="639.5" y="-969.6" font-family="Helvetica,sans-Serif" font-size="13.00" fill="#e94560">MICROCONTROLLER</text>
</g>
<g id="clust3" class="cluster">
<title>cluster_bt</title>
<polygon fill="white" stroke="#53a8b6" stroke-dasharray="5,2" points="609,-1726 609,-1846 1223.5,-1846 1223.5,-1726 609,-1726"/>
<text text-anchor="middle" x="658" y="-1831.6" font-family="Helvetica,sans-Serif" font-size="13.00" fill="#0f3460">BLUETOOTH</text>
</g>
<g id="clust4" class="cluster">
<title>cluster_sens</title>
<polygon fill="white" stroke="#52b788" stroke-dasharray="5,2" points="1043,-711 1043,-977 1212,-977 1212,-711 1043,-711"/>
<text text-anchor="middle" x="1125.5" y="-962.6" font-family="Helvetica,sans-Serif" font-size="13.00" fill="#1b4332">ULTRASONIC SENSORS</text>
</g>
<g id="clust5" class="cluster">
<title>cluster_mot</title>
<polygon fill="white" stroke="#e07a5f" stroke-dasharray="5,2" points="990,-8 990,-313 1627.79,-313 1627.79,-8 990,-8"/>
<text text-anchor="middle" x="1057.5" y="-298.6" font-family="Helvetica,sans-Serif" font-size="13.00" fill="#7b2d26">MOTOR CONTROL</text>
</g>
<g id="clust6" class="cluster">
<title>cluster_ui</title>
<polygon fill="white" stroke="#e6c229" stroke-dasharray="5,2" points="1014,-1266 1014,-1700 1616.86,-1700 1616.86,-1266 1014,-1266"/>
<text text-anchor="middle" x="1058" y="-1685.6" font-family="Helvetica,sans-Serif" font-size="13.00" fill="#3d348b">INTERFACE</text>
</g>
<g id="clust7" class="cluster">
<title>cluster_legend</title>
<polygon fill="#fafafa" stroke="#cccccc" points="158.5,-1447 158.5,-1616 300.5,-1616 300.5,-1447 158.5,-1447"/>
<text text-anchor="middle" x="229.5" y="-1602.4" font-family="Helvetica,sans-Serif" font-size="12.00">LEGEND</text>
</g>
<!-- BAT1 -->
<g id="node1" class="node">
<title>BAT1</title>
<polygon fill="#fff3e0" stroke="#e65100" stroke-width="1.5" points="38,-1107 38,-1147 421,-1147 421,-1107 38,-1107"/>
<text text-anchor="middle" x="88.5" y="-1124.2" font-family="Helvetica,sans-Serif" font-size="11.00">BAT1 Logic Rail</text>
<polyline fill="none" stroke="#e65100" stroke-width="1.5" points="139,-1107 139,-1147 "/>
<text text-anchor="middle" x="194" y="-1124.2" font-family="Helvetica,sans-Serif" font-size="11.00">2x Murata 18650</text>
<polyline fill="none" stroke="#e65100" stroke-width="1.5" points="249,-1107 249,-1147 "/>
<text text-anchor="middle" x="310" y="-1124.2" font-family="Helvetica,sans-Serif" font-size="11.00">7.4V 2600mAh 30A</text>
<polyline fill="none" stroke="#e65100" stroke-width="1.5" points="371,-1107 371,-1147 "/>
<text text-anchor="middle" x="396" y="-1134.2" font-family="Helvetica,sans-Serif" font-size="11.00">+7.4V</text>
<polyline fill="none" stroke="#e65100" stroke-width="1.5" points="371,-1127 421,-1127 "/>
<text text-anchor="middle" x="396" y="-1114.2" font-family="Helvetica,sans-Serif" font-size="11.00">GND</text>
</g>
<!-- LM2596 -->
<g id="node3" class="node">
<title>LM2596</title>
<polygon fill="#e3f2fd" stroke="#1565c0" stroke-width="1.5" points="605,-1064 605,-1104 836,-1104 836,-1064 605,-1064"/>
<text text-anchor="middle" x="625.5" y="-1091.2" font-family="Helvetica,sans-Serif" font-size="11.00">VIN</text>
<polyline fill="none" stroke="#1565c0" stroke-width="1.5" points="605,-1084 646,-1084 "/>
<text text-anchor="middle" x="625.5" y="-1071.2" font-family="Helvetica,sans-Serif" font-size="11.00">GND</text>
<polyline fill="none" stroke="#1565c0" stroke-width="1.5" points="646,-1064 646,-1104 "/>
<text text-anchor="middle" x="707" y="-1081.2" font-family="Helvetica,sans-Serif" font-size="11.00">LM2596 Step&#45;Down</text>
<polyline fill="none" stroke="#1565c0" stroke-width="1.5" points="768,-1064 768,-1104 "/>
<text text-anchor="middle" x="802" y="-1091.2" font-family="Helvetica,sans-Serif" font-size="11.00">+5V OUT</text>
<polyline fill="none" stroke="#1565c0" stroke-width="1.5" points="768,-1084 836,-1084 "/>
<text text-anchor="middle" x="802" y="-1071.2" font-family="Helvetica,sans-Serif" font-size="11.00">GND</text>
</g>
<!-- BAT1&#45;&gt;LM2596 -->
<g id="edge21" class="edge">
<title>BAT1:pos&#45;&gt;LM2596:vin</title>
<path fill="none" stroke="#e65100" stroke-width="2.5" d="M396.66,-1116.75C403.15,-1116.75 611,-1116.75 611,-1116.75 611,-1116.75 611,-1114.04 611,-1114.04"/>
<polygon fill="#e65100" stroke="#e65100" stroke-width="2.5" points="614.5,-1114.04 611,-1104.04 607.5,-1114.04 614.5,-1114.04"/>
<text text-anchor="middle" x="494.18" y="-1109.55" font-family="Helvetica,sans-Serif" font-size="9.00" fill="#e65100">7.4V</text>
</g>
<!-- L298N -->
<g id="node9" class="node">
<title>L298N</title>
<polygon fill="#7b2d26" stroke="#e07a5f" stroke-width="1.5" points="1017.5,-160 1017.5,-260 1237.5,-260 1237.5,-160 1017.5,-160"/>
<text text-anchor="middle" x="1053" y="-247.2" font-family="Helvetica,sans-Serif" font-size="11.00" fill="white">ENA PWM</text>
<polyline fill="none" stroke="#e07a5f" stroke-width="1.5" points="1017.5,-240 1088.5,-240 "/>
<text text-anchor="middle" x="1053" y="-227.2" font-family="Helvetica,sans-Serif" font-size="11.00" fill="white">IN1</text>
<polyline fill="none" stroke="#e07a5f" stroke-width="1.5" points="1017.5,-220 1088.5,-220 "/>
<text text-anchor="middle" x="1053" y="-207.2" font-family="Helvetica,sans-Serif" font-size="11.00" fill="white">IN2</text>
<polyline fill="none" stroke="#e07a5f" stroke-width="1.5" points="1017.5,-200 1088.5,-200 "/>
<text text-anchor="middle" x="1053" y="-187.2" font-family="Helvetica,sans-Serif" font-size="11.00" fill="white">+7.4V</text>
<polyline fill="none" stroke="#e07a5f" stroke-width="1.5" points="1017.5,-180 1088.5,-180 "/>
<text text-anchor="middle" x="1053" y="-167.2" font-family="Helvetica,sans-Serif" font-size="11.00" fill="white">GND</text>
<polyline fill="none" stroke="#e07a5f" stroke-width="1.5" points="1088.5,-160 1088.5,-260 "/>
<text text-anchor="middle" x="1139.5" y="-207.2" font-family="Helvetica,sans-Serif" font-size="11.00" fill="white">L298N H&#45;Bridge</text>
<polyline fill="none" stroke="#e07a5f" stroke-width="1.5" points="1190.5,-160 1190.5,-260 "/>
<text text-anchor="middle" x="1214" y="-232.2" font-family="Helvetica,sans-Serif" font-size="11.00" fill="white">OUT1</text>
<polyline fill="none" stroke="#e07a5f" stroke-width="1.5" points="1190.5,-210 1237.5,-210 "/>
<text text-anchor="middle" x="1214" y="-182.2" font-family="Helvetica,sans-Serif" font-size="11.00" fill="white">OUT2</text>
</g>
<!-- BAT1&#45;&gt;L298N -->
<g id="edge23" class="edge">
<title>BAT1:pos&#45;&gt;L298N:v12</title>
<path fill="none" stroke="#e65100" stroke-width="2.5" d="M421.13,-1127C539.59,-1127 1045,-1127 1045,-1127 1045,-1127 1045,-210.2 1045,-210.2"/>
<polygon fill="#e65100" stroke="#e65100" stroke-width="2.5" points="1048.5,-210.2 1045,-200.2 1041.5,-210.2 1048.5,-210.2"/>
<text text-anchor="middle" x="1034" y="-973.34" font-family="Helvetica,sans-Serif" font-size="9.00" fill="#e65100">7.4V</text>
</g>
<!-- GND_BUS -->
<g id="node18" class="node">
<title>GND_BUS</title>
<polygon fill="#333333" stroke="#000000" stroke-width="2.5" points="1747,-894 1387,-894 1387,-858 1747,-858 1747,-894"/>
<text text-anchor="middle" x="1567" y="-873.2" font-family="Helvetica,sans-Serif" font-size="11.00" fill="white">COMMON GND BUS &#160;— &#160;MCU + BAT1 + BAT2 + ESC + L298N</text>
</g>
<!-- BAT1&#45;&gt;GND_BUS -->
<g id="edge31" class="edge">
<title>BAT1:neg&#45;&gt;GND_BUS</title>
<path fill="none" stroke="#000000" stroke-width="2" d="M396.55,-1137.25C404.69,-1137.25 1447,-1137.25 1447,-1137.25 1447,-1137.25 1447,-904.37 1447,-904.37"/>
<polygon fill="#000000" stroke="#000000" stroke-width="2" points="1450.5,-904.37 1447,-894.37 1443.5,-904.37 1450.5,-904.37"/>
</g>
<!-- BAT2 -->
<g id="node2" class="node">
<title>BAT2</title>
<polygon fill="#fff3e0" stroke="#e65100" stroke-width="1.5" points="16,-1001 16,-1041 443,-1041 443,-1001 16,-1001"/>
<text text-anchor="middle" x="74" y="-1018.2" font-family="Helvetica,sans-Serif" font-size="11.00">BAT2 Traction Rail</text>
<polyline fill="none" stroke="#e65100" stroke-width="1.5" points="132,-1001 132,-1041 "/>
<text text-anchor="middle" x="205" y="-1018.2" font-family="Helvetica,sans-Serif" font-size="11.00">2x Samsung 25R 18650</text>
<polyline fill="none" stroke="#e65100" stroke-width="1.5" points="278,-1001 278,-1041 "/>
<text text-anchor="middle" x="335.5" y="-1018.2" font-family="Helvetica,sans-Serif" font-size="11.00">7.4V 2500mAh 8C</text>
<polyline fill="none" stroke="#e65100" stroke-width="1.5" points="393,-1001 393,-1041 "/>
<text text-anchor="middle" x="418" y="-1028.2" font-family="Helvetica,sans-Serif" font-size="11.00">+7.4V</text>
<polyline fill="none" stroke="#e65100" stroke-width="1.5" points="393,-1021 443,-1021 "/>
<text text-anchor="middle" x="418" y="-1008.2" font-family="Helvetica,sans-Serif" font-size="11.00">GND</text>
</g>
<!-- ESC -->
<g id="node11" class="node">
<title>ESC</title>
<polygon fill="#7b2d26" stroke="#e07a5f" stroke-width="1.5" points="998,-34 998,-94 1257,-94 1257,-34 998,-34"/>
<text text-anchor="middle" x="1035.5" y="-81.2" font-family="Helvetica,sans-Serif" font-size="11.00" fill="white">Signal</text>
<polyline fill="none" stroke="#e07a5f" stroke-width="1.5" points="998,-74 1073,-74 "/>
<text text-anchor="middle" x="1035.5" y="-61.2" font-family="Helvetica,sans-Serif" font-size="11.00" fill="white">BAT+ 7.4V</text>
<polyline fill="none" stroke="#e07a5f" stroke-width="1.5" points="998,-54 1073,-54 "/>
<text text-anchor="middle" x="1035.5" y="-41.2" font-family="Helvetica,sans-Serif" font-size="11.00" fill="white">GND</text>
<polyline fill="none" stroke="#e07a5f" stroke-width="1.5" points="1073,-34 1073,-94 "/>
<text text-anchor="middle" x="1128.5" y="-61.2" font-family="Helvetica,sans-Serif" font-size="11.00" fill="white">ESC 20A Brushed</text>
<polyline fill="none" stroke="#e07a5f" stroke-width="1.5" points="1184,-34 1184,-94 "/>
<text text-anchor="middle" x="1220.5" y="-61.2" font-family="Helvetica,sans-Serif" font-size="11.00" fill="white">Motor Out</text>
</g>
<!-- BAT2&#45;&gt;ESC -->
<g id="edge24" class="edge">
<title>BAT2:pos&#45;&gt;ESC:bat</title>
<path fill="none" stroke="#e65100" stroke-width="2.5" d="M418.61,-1014.17C427.72,-1014.17 1011,-1014.17 1011,-1014.17 1011,-1014.17 1011,-84.03 1011,-84.03"/>
<polygon fill="#e65100" stroke="#e65100" stroke-width="2.5" points="1014.5,-84.03 1011,-74.03 1007.5,-84.03 1014.5,-84.03"/>
<text text-anchor="middle" x="1000" y="-838.09" font-family="Helvetica,sans-Serif" font-size="9.00" fill="#e65100">7.4V</text>
</g>
<!-- BAT2&#45;&gt;GND_BUS -->
<g id="edge32" class="edge">
<title>BAT2:neg&#45;&gt;GND_BUS</title>
<path fill="none" stroke="#000000" stroke-width="2" d="M418.55,-1027.83C426.21,-1027.83 1407,-1027.83 1407,-1027.83 1407,-1027.83 1407,-904.01 1407,-904.01"/>
<polygon fill="#000000" stroke="#000000" stroke-width="2" points="1410.5,-904.01 1407,-894.01 1403.5,-904.01 1410.5,-904.01"/>
</g>
<!-- MCU -->
<g id="node4" class="node">
<title>MCU</title>
<polygon fill="#1a1a2e" stroke="#e94560" stroke-width="2.5" points="573,-733 573,-953 868,-953 868,-733 573,-733"/>
<text text-anchor="middle" x="626.5" y="-940.2" font-family="Helvetica,sans-Serif" font-size="11.00" fill="white">D0/PD0 (RX)</text>
<polyline fill="none" stroke="#e94560" stroke-width="2.5" points="573,-933 680,-933 "/>
<text text-anchor="middle" x="626.5" y="-920.2" font-family="Helvetica,sans-Serif" font-size="11.00" fill="white">D1/PD1 (TX)</text>
<polyline fill="none" stroke="#e94560" stroke-width="2.5" points="573,-913 680,-913 "/>
<text text-anchor="middle" x="626.5" y="-900.2" font-family="Helvetica,sans-Serif" font-size="11.00" fill="white">D2/PD2</text>
<polyline fill="none" stroke="#e94560" stroke-width="2.5" points="573,-893 680,-893 "/>
<text text-anchor="middle" x="626.5" y="-880.2" font-family="Helvetica,sans-Serif" font-size="11.00" fill="white">D3/PD3</text>
<polyline fill="none" stroke="#e94560" stroke-width="2.5" points="573,-873 680,-873 "/>
<text text-anchor="middle" x="626.5" y="-860.2" font-family="Helvetica,sans-Serif" font-size="11.00" fill="white">D4/PD4</text>
<polyline fill="none" stroke="#e94560" stroke-width="2.5" points="573,-853 680,-853 "/>
<text text-anchor="middle" x="626.5" y="-840.2" font-family="Helvetica,sans-Serif" font-size="11.00" fill="white">D5/PD5</text>
<polyline fill="none" stroke="#e94560" stroke-width="2.5" points="573,-833 680,-833 "/>
<text text-anchor="middle" x="626.5" y="-820.2" font-family="Helvetica,sans-Serif" font-size="11.00" fill="white">D6/PD6 (OC0A)</text>
<polyline fill="none" stroke="#e94560" stroke-width="2.5" points="573,-813 680,-813 "/>
<text text-anchor="middle" x="626.5" y="-800.2" font-family="Helvetica,sans-Serif" font-size="11.00" fill="white">D7/PD7</text>
<polyline fill="none" stroke="#e94560" stroke-width="2.5" points="573,-793 680,-793 "/>
<text text-anchor="middle" x="626.5" y="-780.2" font-family="Helvetica,sans-Serif" font-size="11.00" fill="white">D8/PB0</text>
<polyline fill="none" stroke="#e94560" stroke-width="2.5" points="573,-773 680,-773 "/>
<text text-anchor="middle" x="626.5" y="-760.2" font-family="Helvetica,sans-Serif" font-size="11.00" fill="white">D9/PB1</text>
<polyline fill="none" stroke="#e94560" stroke-width="2.5" points="573,-753 680,-753 "/>
<text text-anchor="middle" x="626.5" y="-740.2" font-family="Helvetica,sans-Serif" font-size="11.00" fill="white">D10/PB2 (OC1B)</text>
<polyline fill="none" stroke="#e94560" stroke-width="2.5" points="680,-733 680,-953 "/>
<text text-anchor="middle" x="725" y="-846.2" font-family="Helvetica,sans-Serif" font-size="11.00" fill="white">ATmega328P</text>
<text text-anchor="middle" x="725" y="-834.2" font-family="Helvetica,sans-Serif" font-size="11.00" fill="white">Xplained Mini</text>
<polyline fill="none" stroke="#e94560" stroke-width="2.5" points="770,-733 770,-953 "/>
<text text-anchor="middle" x="819" y="-932.2" font-family="Helvetica,sans-Serif" font-size="11.00" fill="white">A0/PC0 (ADC0)</text>
<polyline fill="none" stroke="#e94560" stroke-width="2.5" points="770,-917 868,-917 "/>
<text text-anchor="middle" x="819" y="-895.7" font-family="Helvetica,sans-Serif" font-size="11.00" fill="white">A2/PC2</text>
<polyline fill="none" stroke="#e94560" stroke-width="2.5" points="770,-880 868,-880 "/>
<text text-anchor="middle" x="819" y="-858.7" font-family="Helvetica,sans-Serif" font-size="11.00" fill="white">A4/PC4 (SDA)</text>
<polyline fill="none" stroke="#e94560" stroke-width="2.5" points="770,-843 868,-843 "/>
<text text-anchor="middle" x="819" y="-822.2" font-family="Helvetica,sans-Serif" font-size="11.00" fill="white">A5/PC5 (SCL)</text>
<polyline fill="none" stroke="#e94560" stroke-width="2.5" points="770,-807 868,-807 "/>
<text text-anchor="middle" x="819" y="-785.7" font-family="Helvetica,sans-Serif" font-size="11.00" fill="white">VCC +5V</text>
<polyline fill="none" stroke="#e94560" stroke-width="2.5" points="770,-770 868,-770 "/>
<text text-anchor="middle" x="819" y="-748.7" font-family="Helvetica,sans-Serif" font-size="11.00" fill="white">GND</text>
</g>
<!-- LM2596&#45;&gt;MCU -->
<g id="edge22" class="edge">
<title>LM2596:vout&#45;&gt;MCU:vcc</title>
<path fill="none" stroke="#d32f2f" stroke-width="2" d="M721,-1093.94C721,-1093.94 721,-798.05 721,-798.05"/>
<polygon fill="#d32f2f" stroke="#d32f2f" stroke-width="2" points="724.5,-798.05 721,-788.05 717.5,-798.05 724.5,-798.05"/>
<text text-anchor="middle" x="711" y="-948.8" font-family="Helvetica,sans-Serif" font-size="9.00" fill="#d32f2f">+5V</text>
</g>
<!-- HC05 -->
<g id="node5" class="node">
<title>HC05</title>
<polygon fill="#0f3460" stroke="#53a8b6" stroke-width="1.5" points="1039.5,-1735 1039.5,-1815 1215.5,-1815 1215.5,-1735 1039.5,-1735"/>
<text text-anchor="middle" x="1074" y="-1802.2" font-family="Helvetica,sans-Serif" font-size="11.00" fill="white">TX</text>
<polyline fill="none" stroke="#53a8b6" stroke-width="1.5" points="1039.5,-1795 1108.5,-1795 "/>
<text text-anchor="middle" x="1074" y="-1782.2" font-family="Helvetica,sans-Serif" font-size="11.00" fill="white">RX (3.3V)</text>
<polyline fill="none" stroke="#53a8b6" stroke-width="1.5" points="1039.5,-1775 1108.5,-1775 "/>
<text text-anchor="middle" x="1074" y="-1762.2" font-family="Helvetica,sans-Serif" font-size="11.00" fill="white">VCC</text>
<polyline fill="none" stroke="#53a8b6" stroke-width="1.5" points="1039.5,-1755 1108.5,-1755 "/>
<text text-anchor="middle" x="1074" y="-1742.2" font-family="Helvetica,sans-Serif" font-size="11.00" fill="white">GND</text>
<polyline fill="none" stroke="#53a8b6" stroke-width="1.5" points="1108.5,-1735 1108.5,-1815 "/>
<text text-anchor="middle" x="1162" y="-1772.2" font-family="Helvetica,sans-Serif" font-size="11.00" fill="white">HC&#45;05 Bluetooth</text>
</g>
<!-- LM2596&#45;&gt;HC05 -->
<g id="edge25" class="edge">
<title>LM2596:vout&#45;&gt;HC05:vcc</title>
<path fill="none" stroke="#d32f2f" stroke-width="1.2" stroke-dasharray="5,2" d="M827,-1104.21C827,-1188.11 827,-1760.9 827,-1760.9 827,-1760.9 1029.48,-1760.9 1029.48,-1760.9"/>
<polygon fill="#d32f2f" stroke="#d32f2f" stroke-width="1.2" points="1029.48,-1764.4 1039.48,-1760.9 1029.48,-1757.4 1029.48,-1764.4"/>
</g>
<!-- SR04F -->
<g id="node7" class="node">
<title>SR04F</title>
<polygon fill="#1b4332" stroke="#52b788" stroke-width="1.5" points="1051,-866 1051,-946 1204,-946 1204,-866 1051,-866"/>
<text text-anchor="middle" x="1075" y="-933.2" font-family="Helvetica,sans-Serif" font-size="11.00" fill="white">VCC</text>
<polyline fill="none" stroke="#52b788" stroke-width="1.5" points="1051,-926 1099,-926 "/>
<text text-anchor="middle" x="1075" y="-913.2" font-family="Helvetica,sans-Serif" font-size="11.00" fill="white">TRIG</text>
<polyline fill="none" stroke="#52b788" stroke-width="1.5" points="1051,-906 1099,-906 "/>
<text text-anchor="middle" x="1075" y="-893.2" font-family="Helvetica,sans-Serif" font-size="11.00" fill="white">ECHO</text>
<polyline fill="none" stroke="#52b788" stroke-width="1.5" points="1051,-886 1099,-886 "/>
<text text-anchor="middle" x="1075" y="-873.2" font-family="Helvetica,sans-Serif" font-size="11.00" fill="white">GND</text>
<polyline fill="none" stroke="#52b788" stroke-width="1.5" points="1099,-866 1099,-946 "/>
<text text-anchor="middle" x="1151.5" y="-903.2" font-family="Helvetica,sans-Serif" font-size="11.00" fill="white">HC&#45;SR04 FRONT</text>
</g>
<!-- LM2596&#45;&gt;SR04F -->
<g id="edge26" class="edge">
<title>LM2596:vout&#45;&gt;SR04F:vcc</title>
<path fill="none" stroke="#d32f2f" stroke-width="1.2" stroke-dasharray="5,2" d="M836.16,-1084C904.69,-1084 1054,-1084 1054,-1084 1054,-1084 1054,-956.17 1054,-956.17"/>
<polygon fill="#d32f2f" stroke="#d32f2f" stroke-width="1.2" points="1057.5,-956.17 1054,-946.17 1050.5,-956.17 1057.5,-956.17"/>
</g>
<!-- SR04R -->
<g id="node8" class="node">
<title>SR04R</title>
<polygon fill="#1b4332" stroke="#52b788" stroke-width="1.5" points="1055,-720 1055,-800 1200,-800 1200,-720 1055,-720"/>
<text text-anchor="middle" x="1079" y="-787.2" font-family="Helvetica,sans-Serif" font-size="11.00" fill="white">VCC</text>
<polyline fill="none" stroke="#52b788" stroke-width="1.5" points="1055,-780 1103,-780 "/>
<text text-anchor="middle" x="1079" y="-767.2" font-family="Helvetica,sans-Serif" font-size="11.00" fill="white">TRIG</text>
<polyline fill="none" stroke="#52b788" stroke-width="1.5" points="1055,-760 1103,-760 "/>
<text text-anchor="middle" x="1079" y="-747.2" font-family="Helvetica,sans-Serif" font-size="11.00" fill="white">ECHO</text>
<polyline fill="none" stroke="#52b788" stroke-width="1.5" points="1055,-740 1103,-740 "/>
<text text-anchor="middle" x="1079" y="-727.2" font-family="Helvetica,sans-Serif" font-size="11.00" fill="white">GND</text>
<polyline fill="none" stroke="#52b788" stroke-width="1.5" points="1103,-720 1103,-800 "/>
<text text-anchor="middle" x="1151.5" y="-757.2" font-family="Helvetica,sans-Serif" font-size="11.00" fill="white">HC&#45;SR04 REAR</text>
</g>
<!-- LM2596&#45;&gt;SR04R -->
<g id="edge27" class="edge">
<title>LM2596:vout&#45;&gt;SR04R:vcc</title>
<path fill="none" stroke="#d32f2f" stroke-width="1.2" stroke-dasharray="5,2" d="M802.58,-1073.75C805.9,-1073.75 912,-1073.75 912,-1073.75 912,-1073.75 912,-792 912,-792 912,-792 1045,-792 1045,-792"/>
<polygon fill="#d32f2f" stroke="#d32f2f" stroke-width="1.2" points="1045,-795.5 1055,-792 1045,-788.5 1045,-795.5"/>
</g>
<!-- LCD -->
<g id="node13" class="node">
<title>LCD</title>
<polygon fill="#3d348b" stroke="#e6c229" stroke-width="1.5" points="1062,-1377 1062,-1457 1193,-1457 1193,-1377 1062,-1377"/>
<text text-anchor="middle" x="1082.5" y="-1444.2" font-family="Helvetica,sans-Serif" font-size="11.00" fill="white">SDA</text>
<polyline fill="none" stroke="#e6c229" stroke-width="1.5" points="1062,-1437 1103,-1437 "/>
<text text-anchor="middle" x="1082.5" y="-1424.2" font-family="Helvetica,sans-Serif" font-size="11.00" fill="white">SCL</text>
<polyline fill="none" stroke="#e6c229" stroke-width="1.5" points="1062,-1417 1103,-1417 "/>
<text text-anchor="middle" x="1082.5" y="-1404.2" font-family="Helvetica,sans-Serif" font-size="11.00" fill="white">VCC</text>
<polyline fill="none" stroke="#e6c229" stroke-width="1.5" points="1062,-1397 1103,-1397 "/>
<text text-anchor="middle" x="1082.5" y="-1384.2" font-family="Helvetica,sans-Serif" font-size="11.00" fill="white">GND</text>
<polyline fill="none" stroke="#e6c229" stroke-width="1.5" points="1103,-1377 1103,-1457 "/>
<text text-anchor="middle" x="1148" y="-1420.2" font-family="Helvetica,sans-Serif" font-size="11.00" fill="white">LCD 1602 I2C</text>
<text text-anchor="middle" x="1148" y="-1408.2" font-family="Helvetica,sans-Serif" font-size="11.00" fill="white">PCF8574</text>
</g>
<!-- LM2596&#45;&gt;LCD -->
<g id="edge28" class="edge">
<title>LM2596:vout&#45;&gt;LCD:vcc</title>
<path fill="none" stroke="#d32f2f" stroke-width="1.2" stroke-dasharray="5,2" d="M833,-1104.22C833,-1161.02 833,-1435.38 833,-1435.38 833,-1435.38 1072.45,-1435.38 1072.45,-1435.38"/>
<polygon fill="#d32f2f" stroke="#d32f2f" stroke-width="1.2" points="1072.45,-1438.88 1082.45,-1435.38 1072.45,-1431.88 1072.45,-1438.88"/>
</g>
<!-- LDR -->
<g id="node15" class="node">
<title>LDR</title>
<polygon fill="#ffffff" stroke="#888888" points="1022,-1629 1022,-1669 1233,-1669 1233,-1629 1022,-1629"/>
<text text-anchor="middle" x="1042" y="-1646.2" font-family="Helvetica,sans-Serif" font-size="11.00">+5V</text>
<polyline fill="none" stroke="#888888" points="1062,-1629 1062,-1669 "/>
<text text-anchor="middle" x="1120.5" y="-1646.2" font-family="Helvetica,sans-Serif" font-size="11.00">LDR + 10k Divider</text>
<polyline fill="none" stroke="#888888" points="1179,-1629 1179,-1669 "/>
<text text-anchor="middle" x="1206" y="-1656.2" font-family="Helvetica,sans-Serif" font-size="11.00">Analog</text>
<polyline fill="none" stroke="#888888" points="1179,-1649 1233,-1649 "/>
<text text-anchor="middle" x="1206" y="-1636.2" font-family="Helvetica,sans-Serif" font-size="11.00">GND</text>
</g>
<!-- LM2596&#45;&gt;LDR -->
<g id="edge29" class="edge">
<title>LM2596:vout&#45;&gt;LDR:vcc</title>
<path fill="none" stroke="#d32f2f" stroke-width="1.2" stroke-dasharray="5,2" d="M830,-1104.11C830,-1179.33 830,-1649 830,-1649 830,-1649 1011.98,-1649 1011.98,-1649"/>
<polygon fill="#d32f2f" stroke="#d32f2f" stroke-width="1.2" points="1011.98,-1652.5 1021.98,-1649 1011.98,-1645.5 1011.98,-1652.5"/>
</g>
<!-- LM2596&#45;&gt;GND_BUS -->
<g id="edge35" class="edge">
<title>LM2596:gnd_out&#45;&gt;GND_BUS</title>
<path fill="none" stroke="#000000" stroke-width="2" d="M802.61,-1094.25C812.22,-1094.25 1427,-1094.25 1427,-1094.25 1427,-1094.25 1427,-904.23 1427,-904.23"/>
<polygon fill="#000000" stroke="#000000" stroke-width="2" points="1430.5,-904.23 1427,-894.23 1423.5,-904.23 1430.5,-904.23"/>
</g>
<!-- DIVIDER -->
<g id="node6" class="node">
<title>DIVIDER</title>
<polygon fill="#ffffff" stroke="#888888" points="617,-1734 617,-1778 824,-1778 824,-1734 617,-1734"/>
<text text-anchor="middle" x="640" y="-1753.2" font-family="Helvetica,sans-Serif" font-size="11.00">IN 5V</text>
<polyline fill="none" stroke="#888888" points="663,-1734 663,-1778 "/>
<text text-anchor="middle" x="709" y="-1765.2" font-family="Helvetica,sans-Serif" font-size="11.00">Divider</text>
<text text-anchor="middle" x="709" y="-1753.2" font-family="Helvetica,sans-Serif" font-size="11.00">R1=1k R2=2k</text>
<text text-anchor="middle" x="709" y="-1741.2" font-family="Helvetica,sans-Serif" font-size="11.00">5V to 3.3V</text>
<polyline fill="none" stroke="#888888" points="755,-1734 755,-1778 "/>
<text text-anchor="middle" x="789.5" y="-1764.2" font-family="Helvetica,sans-Serif" font-size="11.00">OUT 3.3V</text>
<polyline fill="none" stroke="#888888" points="755,-1756 824,-1756 "/>
<text text-anchor="middle" x="789.5" y="-1742.2" font-family="Helvetica,sans-Serif" font-size="11.00">GND</text>
</g>
<!-- MCU&#45;&gt;DIVIDER -->
<g id="edge2" class="edge">
<title>MCU:d1&#45;&gt;DIVIDER:in</title>
<path fill="none" stroke="#1565c0" stroke-width="1.2" d="M589,-933.23C589,-1028.44 589,-1756 589,-1756 589,-1756 606.91,-1756 606.91,-1756"/>
<polygon fill="#1565c0" stroke="#1565c0" stroke-width="1.2" points="606.91,-1759.5 616.91,-1756 606.91,-1752.5 606.91,-1759.5"/>
<text text-anchor="middle" x="559.5" y="-1346.37" font-family="Helvetica,sans-Serif" font-size="9.00" fill="#1565c0">USART TX 5V</text>
</g>
<!-- MCU&#45;&gt;SR04F -->
<g id="edge4" class="edge">
<title>MCU:d2&#45;&gt;SR04F:trig</title>
<path fill="none" stroke="#1565c0" stroke-width="1.2" d="M626.58,-892.5C626.58,-892.5 1064.42,-892.5 1064.42,-892.5"/>
<polygon fill="#1565c0" stroke="#1565c0" stroke-width="1.2" points="1064.42,-896 1074.42,-892.5 1064.42,-889 1064.42,-896"/>
<text text-anchor="middle" x="834.5" y="-885.3" font-family="Helvetica,sans-Serif" font-size="9.00" fill="#1565c0">TRIG</text>
</g>
<!-- MCU&#45;&gt;SR04R -->
<g id="edge6" class="edge">
<title>MCU:d4&#45;&gt;SR04R:trig</title>
<path fill="none" stroke="#1565c0" stroke-width="1.2" d="M626.58,-775C626.58,-775 1044.87,-775 1044.87,-775"/>
<polygon fill="#1565c0" stroke="#1565c0" stroke-width="1.2" points="1044.87,-778.5 1054.87,-775 1044.87,-771.5 1044.87,-778.5"/>
<text text-anchor="middle" x="824.73" y="-767.8" font-family="Helvetica,sans-Serif" font-size="9.00" fill="#1565c0">TRIG</text>
</g>
<!-- MCU&#45;&gt;L298N -->
<g id="edge8" class="edge">
<title>MCU:d6&#45;&gt;L298N:ena</title>
<path fill="none" stroke="#2e7d32" stroke-width="2" d="M626.57,-749.5C632.8,-749.5 1031,-749.5 1031,-749.5 1031,-749.5 1031,-270.43 1031,-270.43"/>
<polygon fill="#2e7d32" stroke="#2e7d32" stroke-width="2" points="1034.5,-270.43 1031,-260.43 1027.5,-270.43 1034.5,-270.43"/>
<text text-anchor="middle" x="1006" y="-704.98" font-family="Helvetica,sans-Serif" font-size="9.00" fill="#2e7d32">PWM OC0A</text>
</g>
<!-- MCU&#45;&gt;L298N -->
<g id="edge9" class="edge">
<title>MCU:d8&#45;&gt;L298N:in1</title>
<path fill="none" stroke="#1565c0" stroke-width="1.2" d="M626.57,-758C632.87,-758 1036,-758 1036,-758 1036,-758 1036,-250.08 1036,-250.08"/>
<polygon fill="#1565c0" stroke="#1565c0" stroke-width="1.2" points="1039.5,-250.08 1036,-240.08 1032.5,-250.08 1039.5,-250.08"/>
<text text-anchor="middle" x="1052" y="-701.55" font-family="Helvetica,sans-Serif" font-size="9.00" fill="#1565c0">Dir IN1</text>
</g>
<!-- MCU&#45;&gt;L298N -->
<g id="edge10" class="edge">
<title>MCU:d9&#45;&gt;L298N:in2</title>
<path fill="none" stroke="#1565c0" stroke-width="1.2" d="M680.13,-766.5C792.02,-766.5 1040,-766.5 1040,-766.5 1040,-766.5 1040,-230.13 1040,-230.13"/>
<polygon fill="#1565c0" stroke="#1565c0" stroke-width="1.2" points="1043.5,-230.13 1040,-220.13 1036.5,-230.13 1043.5,-230.13"/>
<text text-anchor="middle" x="1024" y="-671.05" font-family="Helvetica,sans-Serif" font-size="9.00" fill="#1565c0">Dir IN2</text>
</g>
<!-- MCU&#45;&gt;ESC -->
<g id="edge13" class="edge">
<title>MCU:d10&#45;&gt;ESC:sig</title>
<path fill="none" stroke="#2e7d32" stroke-width="2" d="M680.33,-741C784.82,-741 1005,-741 1005,-741 1005,-741 1005,-104.06 1005,-104.06"/>
<polygon fill="#2e7d32" stroke="#2e7d32" stroke-width="2" points="1008.5,-104.06 1005,-94.06 1001.5,-104.06 1008.5,-104.06"/>
<text text-anchor="middle" x="967" y="-577.66" font-family="Helvetica,sans-Serif" font-size="9.00" fill="#2e7d32">PWM OC1B 50Hz</text>
</g>
<!-- MCU&#45;&gt;LCD -->
<g id="edge15" class="edge">
<title>MCU:a4&#45;&gt;LCD:sda</title>
<path fill="none" stroke="#7b1fa2" stroke-width="1.2" d="M849,-880.11C849,-975.54 849,-1415.75 849,-1415.75 849,-1415.75 1072.46,-1415.75 1072.46,-1415.75"/>
<polygon fill="#7b1fa2" stroke="#7b1fa2" stroke-width="1.2" points="1072.46,-1419.25 1082.46,-1415.75 1072.46,-1412.25 1072.46,-1419.25"/>
<text text-anchor="middle" x="830.5" y="-1252.46" font-family="Helvetica,sans-Serif" font-size="9.00" fill="#7b1fa2">I2C SDA</text>
</g>
<!-- MCU&#45;&gt;LCD -->
<g id="edge16" class="edge">
<title>MCU:a5&#45;&gt;LCD:scl</title>
<path fill="none" stroke="#7b1fa2" stroke-width="1.2" d="M856,-843.04C856,-940.12 856,-1396.12 856,-1396.12 856,-1396.12 1072.34,-1396.12 1072.34,-1396.12"/>
<polygon fill="#7b1fa2" stroke="#7b1fa2" stroke-width="1.2" points="1072.34,-1399.63 1082.34,-1396.12 1072.34,-1392.63 1072.34,-1399.63"/>
<text text-anchor="middle" x="838" y="-1220.55" font-family="Helvetica,sans-Serif" font-size="9.00" fill="#7b1fa2">I2C SCL</text>
</g>
<!-- BUZZER -->
<g id="node14" class="node">
<title>BUZZER</title>
<polygon fill="#3d348b" stroke="#e6c229" stroke-width="1.5" points="1049,-1523 1049,-1563 1206,-1563 1206,-1523 1049,-1523"/>
<text text-anchor="middle" x="1069.5" y="-1550.2" font-family="Helvetica,sans-Serif" font-size="11.00" fill="white">D+</text>
<polyline fill="none" stroke="#e6c229" stroke-width="1.5" points="1049,-1543 1090,-1543 "/>
<text text-anchor="middle" x="1069.5" y="-1530.2" font-family="Helvetica,sans-Serif" font-size="11.00" fill="white">GND</text>
<polyline fill="none" stroke="#e6c229" stroke-width="1.5" points="1090,-1523 1090,-1563 "/>
<text text-anchor="middle" x="1148" y="-1540.2" font-family="Helvetica,sans-Serif" font-size="11.00" fill="white">Buzzer TMB12A05</text>
</g>
<!-- MCU&#45;&gt;BUZZER -->
<g id="edge18" class="edge">
<title>MCU:a2&#45;&gt;BUZZER:in</title>
<path fill="none" stroke="#1565c0" stroke-width="1.2" d="M819.54,-948.83C823.2,-948.83 1057,-948.83 1057,-948.83 1057,-948.83 1057,-1532.51 1057,-1532.51"/>
<polygon fill="#1565c0" stroke="#1565c0" stroke-width="1.2" points="1053.5,-1532.51 1057,-1542.51 1060.5,-1532.51 1053.5,-1532.51"/>
<text text-anchor="middle" x="1040" y="-1114.75" font-family="Helvetica,sans-Serif" font-size="9.00" fill="#1565c0">ON/OFF</text>
</g>
<!-- R220 -->
<g id="node16" class="node">
<title>R220</title>
<polygon fill="#ffffff" stroke="#888888" points="1059.5,-1275 1059.5,-1311 1195.5,-1311 1195.5,-1275 1059.5,-1275"/>
<text text-anchor="middle" x="1073.5" y="-1290.2" font-family="Helvetica,sans-Serif" font-size="11.00">IN</text>
<polyline fill="none" stroke="#888888" points="1087.5,-1275 1087.5,-1311 "/>
<text text-anchor="middle" x="1121" y="-1290.2" font-family="Helvetica,sans-Serif" font-size="11.00">220 Ohm</text>
<polyline fill="none" stroke="#888888" points="1154.5,-1275 1154.5,-1311 "/>
<text text-anchor="middle" x="1175" y="-1290.2" font-family="Helvetica,sans-Serif" font-size="11.00">OUT</text>
</g>
<!-- MCU&#45;&gt;R220 -->
<g id="edge19" class="edge">
<title>MCU:d7&#45;&gt;R220:in</title>
<path fill="none" stroke="#1565c0" stroke-width="1.2" d="M862,-803.09C862,-810.63 862,-1293 862,-1293 862,-1293 1049.29,-1293 1049.29,-1293"/>
<polygon fill="#1565c0" stroke="#1565c0" stroke-width="1.2" points="1049.29,-1296.5 1059.29,-1293 1049.29,-1289.5 1049.29,-1296.5"/>
<text text-anchor="middle" x="851" y="-1134.49" font-family="Helvetica,sans-Serif" font-size="9.00" fill="#1565c0">GPIO</text>
</g>
<!-- MCU&#45;&gt;GND_BUS -->
<g id="edge30" class="edge">
<title>MCU:gnd&#45;&gt;GND_BUS</title>
<path fill="none" stroke="#000000" stroke-width="2" d="M819.64,-862.5C819.64,-862.5 1376.6,-862.5 1376.6,-862.5"/>
<polygon fill="#000000" stroke="#000000" stroke-width="2" points="1376.6,-866 1386.6,-862.5 1376.6,-859 1376.6,-866"/>
</g>
<!-- HC05&#45;&gt;MCU -->
<g id="edge1" class="edge">
<title>HC05:tx&#45;&gt;MCU:d0</title>
<path fill="none" stroke="#1565c0" stroke-width="1.2" d="M1073.33,-1752.1C1066.35,-1752.1 843,-1752.1 843,-1752.1 843,-1752.1 843,-953.15 843,-953.15"/>
<polygon fill="#1565c0" stroke="#1565c0" stroke-width="1.2" points="846.5,-953.15 843,-943.15 839.5,-953.15 846.5,-953.15"/>
<text text-anchor="middle" x="820.5" y="-1460.59" font-family="Helvetica,sans-Serif" font-size="9.00" fill="#1565c0">USART RX</text>
</g>
<!-- HC05&#45;&gt;GND_BUS -->
<g id="edge36" class="edge">
<title>HC05:gnd&#45;&gt;GND_BUS</title>
<path fill="none" stroke="#000000" stroke-width="1.5" stroke-dasharray="5,2" d="M1073.58,-1775C1080.23,-1775 1506,-1775 1506,-1775 1506,-1775 1506,-904.37 1506,-904.37"/>
<polygon fill="#000000" stroke="#000000" stroke-width="1.5" points="1509.5,-904.37 1506,-894.37 1502.5,-904.37 1509.5,-904.37"/>
</g>
<!-- DIVIDER&#45;&gt;HC05 -->
<g id="edge3" class="edge">
<title>DIVIDER:out&#45;&gt;HC05:rx</title>
<path fill="none" stroke="#1565c0" stroke-width="1.2" d="M824.04,-1769.7C824.04,-1769.7 1063.37,-1769.7 1063.37,-1769.7"/>
<polygon fill="#1565c0" stroke="#1565c0" stroke-width="1.2" points="1063.37,-1773.2 1073.37,-1769.7 1063.37,-1766.2 1063.37,-1773.2"/>
<text text-anchor="middle" x="932.71" y="-1762.5" font-family="Helvetica,sans-Serif" font-size="9.00" fill="#1565c0">3.3V</text>
</g>
<!-- DIVIDER&#45;&gt;GND_BUS -->
<g id="edge42" class="edge">
<title>DIVIDER:gnd&#45;&gt;GND_BUS</title>
<path fill="none" stroke="#000000" stroke-width="1.5" stroke-dasharray="5,2" d="M824.19,-1743.3C872.72,-1743.3 955,-1743.3 955,-1743.3 955,-1743.3 955,-864 955,-864 955,-864 1376.69,-864 1376.69,-864"/>
<polygon fill="#000000" stroke="#000000" stroke-width="1.5" points="1376.69,-867.5 1386.69,-864 1376.69,-860.5 1376.69,-867.5"/>
</g>
<!-- SR04F&#45;&gt;MCU -->
<g id="edge5" class="edge">
<title>SR04F:echo&#45;&gt;MCU:d3</title>
<path fill="none" stroke="#1565c0" stroke-width="1.2" d="M1074.42,-919.5C1074.42,-919.5 636.58,-919.5 636.58,-919.5"/>
<polygon fill="#1565c0" stroke="#1565c0" stroke-width="1.2" points="636.58,-916 626.58,-919.5 636.58,-923 636.58,-916"/>
<text text-anchor="middle" x="868.5" y="-912.3" font-family="Helvetica,sans-Serif" font-size="9.00" fill="#1565c0">ECHO</text>
</g>
<!-- SR04F&#45;&gt;GND_BUS -->
<g id="edge37" class="edge">
<title>SR04F:gnd&#45;&gt;GND_BUS</title>
<path fill="none" stroke="#000000" stroke-width="1.5" stroke-dasharray="5,2" d="M1099.26,-879.75C1099.26,-879.75 1376.99,-879.75 1376.99,-879.75"/>
<polygon fill="#000000" stroke="#000000" stroke-width="1.5" points="1376.99,-883.25 1386.99,-879.75 1376.99,-876.25 1376.99,-883.25"/>
</g>
<!-- SR04R&#45;&gt;MCU -->
<g id="edge7" class="edge">
<title>SR04R:echo&#45;&gt;MCU:d5</title>
<path fill="none" stroke="#1565c0" stroke-width="1.2" d="M1078.42,-783.5C1078.42,-783.5 636.58,-783.5 636.58,-783.5"/>
<polygon fill="#1565c0" stroke="#1565c0" stroke-width="1.2" points="636.58,-780 626.58,-783.5 636.58,-787 636.58,-780"/>
<text text-anchor="middle" x="870.5" y="-776.3" font-family="Helvetica,sans-Serif" font-size="9.00" fill="#1565c0">ECHO</text>
</g>
<!-- SR04R&#45;&gt;GND_BUS -->
<g id="edge38" class="edge">
<title>SR04R:gnd&#45;&gt;GND_BUS</title>
<path fill="none" stroke="#000000" stroke-width="1.5" stroke-dasharray="5,2" d="M1128,-730.09C1128,-734.06 1128,-861 1128,-861 1128,-861 1376.86,-861 1376.86,-861"/>
<polygon fill="#000000" stroke="#000000" stroke-width="1.5" points="1376.86,-864.5 1386.86,-861 1376.86,-857.5 1376.86,-864.5"/>
</g>
<!-- STEER -->
<g id="node10" class="node">
<title>STEER</title>
<ellipse fill="#ffccbc" stroke="#7b2d26" stroke-width="1.5" cx="1567" cy="-230" rx="52.58" ry="52.58"/>
<text text-anchor="middle" x="1567" y="-233.2" font-family="Helvetica,sans-Serif" font-size="11.00">Steering Motor</text>
<text text-anchor="middle" x="1567" y="-221.2" font-family="Helvetica,sans-Serif" font-size="11.00">DC 3&#45;6V</text>
</g>
<!-- L298N&#45;&gt;STEER -->
<g id="edge11" class="edge">
<title>L298N:out1&#45;&gt;STEER</title>
<path fill="none" stroke="#7b2d26" stroke-width="2.5" d="M1214.56,-204.97C1214.56,-204.97 1510.49,-204.97 1510.49,-204.97"/>
<polygon fill="#7b2d26" stroke="#7b2d26" stroke-width="2.5" points="1510.49,-208.47 1520.49,-204.97 1510.49,-201.47 1510.49,-208.47"/>
</g>
<!-- L298N&#45;&gt;STEER -->
<g id="edge12" class="edge">
<title>L298N:out2&#45;&gt;STEER</title>
<path fill="none" stroke="#7b2d26" stroke-width="2.5" d="M1214.56,-232.74C1214.56,-232.74 1504.22,-232.74 1504.22,-232.74"/>
<polygon fill="#7b2d26" stroke="#7b2d26" stroke-width="2.5" points="1504.22,-236.24 1514.22,-232.74 1504.22,-229.24 1504.22,-236.24"/>
</g>
<!-- L298N&#45;&gt;GND_BUS -->
<g id="edge33" class="edge">
<title>L298N:gnd&#45;&gt;GND_BUS</title>
<path fill="none" stroke="#000000" stroke-width="2" d="M1224,-170.13C1224,-180.73 1224,-859.5 1224,-859.5 1224,-859.5 1376.96,-859.5 1376.96,-859.5"/>
<polygon fill="#000000" stroke="#000000" stroke-width="2" points="1376.96,-863 1386.96,-859.5 1376.96,-856 1376.96,-863"/>
</g>
<!-- REAR_M -->
<g id="node12" class="node">
<title>REAR_M</title>
<ellipse fill="#ffccbc" stroke="#7b2d26" stroke-width="1.5" cx="1567" cy="-64" rx="47.89" ry="47.89"/>
<text text-anchor="middle" x="1567" y="-67.2" font-family="Helvetica,sans-Serif" font-size="11.00">Motor 390DC</text>
<text text-anchor="middle" x="1567" y="-55.2" font-family="Helvetica,sans-Serif" font-size="11.00">7.4V</text>
</g>
<!-- ESC&#45;&gt;REAR_M -->
<g id="edge14" class="edge">
<title>ESC:mout&#45;&gt;REAR_M</title>
<path fill="none" stroke="#7b2d26" stroke-width="2.5" d="M1257.25,-64C1257.25,-64 1509.06,-64 1509.06,-64"/>
<polygon fill="#7b2d26" stroke="#7b2d26" stroke-width="2.5" points="1509.06,-67.5 1519.06,-64 1509.06,-60.5 1509.06,-67.5"/>
</g>
<!-- ESC&#45;&gt;GND_BUS -->
<g id="edge34" class="edge">
<title>ESC:gnd&#45;&gt;GND_BUS</title>
<path fill="none" stroke="#000000" stroke-width="2" d="M1248,-44.15C1248,-56.9 1248,-872.62 1248,-872.62 1248,-872.62 1376.99,-872.62 1376.99,-872.62"/>
<polygon fill="#000000" stroke="#000000" stroke-width="2" points="1376.99,-876.13 1386.99,-872.62 1376.99,-869.13 1376.99,-876.13"/>
</g>
<!-- LCD&#45;&gt;GND_BUS -->
<g id="edge39" class="edge">
<title>LCD:gnd&#45;&gt;GND_BUS</title>
<path fill="none" stroke="#000000" stroke-width="1.5" stroke-dasharray="5,2" d="M1082.57,-1417C1088.47,-1417 1466,-1417 1466,-1417 1466,-1417 1466,-904 1466,-904"/>
<polygon fill="#000000" stroke="#000000" stroke-width="1.5" points="1469.5,-904 1466,-894 1462.5,-904 1469.5,-904"/>
</g>
<!-- BUZZER&#45;&gt;GND_BUS -->
<g id="edge40" class="edge">
<title>BUZZER:gnd&#45;&gt;GND_BUS</title>
<path fill="none" stroke="#000000" stroke-width="1.5" stroke-dasharray="5,2" d="M1090.15,-1543C1174.2,-1543 1486,-1543 1486,-1543 1486,-1543 1486,-904.19 1486,-904.19"/>
<polygon fill="#000000" stroke="#000000" stroke-width="1.5" points="1489.5,-904.19 1486,-894.19 1482.5,-904.19 1489.5,-904.19"/>
</g>
<!-- LDR&#45;&gt;MCU -->
<g id="edge17" class="edge">
<title>LDR:out&#45;&gt;MCU:a0</title>
<path fill="none" stroke="#e65100" stroke-width="1.2" d="M1027,-1658.87C1027,-1647.98 1027,-951.17 1027,-951.17 1027,-951.17 878.15,-951.17 878.15,-951.17"/>
<polygon fill="#e65100" stroke="#e65100" stroke-width="1.2" points="878.15,-947.67 868.15,-951.17 878.15,-954.67 878.15,-947.67"/>
<text text-anchor="middle" x="1014.5" y="-1223.39" font-family="Helvetica,sans-Serif" font-size="9.00" fill="#e65100">ADC0</text>
</g>
<!-- LDR&#45;&gt;GND_BUS -->
<g id="edge41" class="edge">
<title>LDR:gnd&#45;&gt;GND_BUS</title>
<path fill="none" stroke="#000000" stroke-width="1.5" stroke-dasharray="5,2" d="M1215,-1628.94C1215,-1539.69 1215,-886.88 1215,-886.88 1215,-886.88 1376.88,-886.88 1376.88,-886.88"/>
<polygon fill="#000000" stroke="#000000" stroke-width="1.5" points="1376.88,-890.38 1386.88,-886.88 1376.88,-883.38 1376.88,-890.38"/>
</g>
<!-- LEDS -->
<g id="node17" class="node">
<title>LEDS</title>
<ellipse fill="#ffffcc" stroke="#3d348b" stroke-width="1.5" cx="1567" cy="-1316" rx="41.72" ry="41.72"/>
<text text-anchor="middle" x="1567" y="-1319.2" font-family="Helvetica,sans-Serif" font-size="11.00">Headlights</text>
<text text-anchor="middle" x="1567" y="-1307.2" font-family="Helvetica,sans-Serif" font-size="11.00">2x LED</text>
</g>
<!-- R220&#45;&gt;LEDS -->
<g id="edge20" class="edge">
<title>R220:out&#45;&gt;LEDS</title>
<path fill="none" stroke="#1565c0" stroke-width="1.2" d="M1195.72,-1293C1195.72,-1293 1521.97,-1293 1521.97,-1293"/>
<polygon fill="#1565c0" stroke="#1565c0" stroke-width="1.2" points="1521.97,-1296.5 1531.97,-1293 1521.97,-1289.5 1521.97,-1296.5"/>
</g>
<!-- LEG -->
<g id="node19" class="node">
<title>LEG</title>
<polygon fill="#fafafa" stroke="transparent" stroke-width="1.5" points="292.5,-1587 166.5,-1587 166.5,-1455 292.5,-1455 292.5,-1587"/>
<text text-anchor="start" x="180.5" y="-1568.2" font-family="Helvetica,sans-Serif" font-size="11.00" fill="#1565c0">——</text>
<text text-anchor="start" x="227" y="-1568.2" font-family="Helvetica,sans-Serif" font-size="11.00">Digital</text>
<text text-anchor="start" x="180.5" y="-1548.2" font-family="Helvetica,sans-Serif" font-size="11.00" fill="#2e7d32">——</text>
<text text-anchor="start" x="231" y="-1548.2" font-family="Helvetica,sans-Serif" font-size="11.00">PWM</text>
<text text-anchor="start" x="180.5" y="-1528.2" font-family="Helvetica,sans-Serif" font-size="11.00" fill="#7b1fa2">——</text>
<text text-anchor="start" x="236" y="-1528.2" font-family="Helvetica,sans-Serif" font-size="11.00">I2C</text>
<text text-anchor="start" x="180.5" y="-1508.2" font-family="Helvetica,sans-Serif" font-size="11.00" fill="#e65100">——</text>
<text text-anchor="start" x="211.5" y="-1508.2" font-family="Helvetica,sans-Serif" font-size="11.00">7.4V/Analog</text>
<text text-anchor="start" x="180.5" y="-1488.2" font-family="Helvetica,sans-Serif" font-size="11.00" fill="#d32f2f">——</text>
<text text-anchor="start" x="233" y="-1488.2" font-family="Helvetica,sans-Serif" font-size="11.00">+5V</text>
<text text-anchor="start" x="180.5" y="-1468.2" font-family="Helvetica,sans-Serif" font-size="11.00" fill="#000000">——</text>
<text text-anchor="start" x="232.5" y="-1468.2" font-family="Helvetica,sans-Serif" font-size="11.00">GND</text>
</g>
</g>
</svg>
